# xmcd
#
# Track frame offsets:
#        150
#        24199
#        41506
#        63956
#        87295
#        110507
#        135244
#        152124
#        177111
#        195138
#        221645
#        245748
#
# Disc length: 3503 seconds
#
# Revision: 0
# Processed by: cddbd v1.5.1PL0 Copyright (c) Steve Scherf et al.
# Submitted via: ExactAudioCopy v0.95a5
#
DISCID=930dad0c
DTITLE=Coldplay - A Rush of Blood to the Head
DYEAR=1900
DGENRE=
TTITLE0=Politik
TTITLE1=In My Place
TTITLE2=God Put A Smile On Your Face
TTITLE3=The Scientist
TTITLE4=Clocks
TTITLE5=Daylight
TTITLE6=Green Eyes
TTITLE7=Warning Sign
TTITLE8=A Whisper
TTITLE9=A Rush Of Blood To The Head
TTITLE10=Amsterdam
TTITLE11=In My Place (Bonus Track)
EXTD=
EXTT0=
EXTT1=
EXTT2=
EXTT3=
EXTT4=
EXTT5=
EXTT6=
EXTT7=
EXTT8=
EXTT9=
EXTT10=
EXTT11=
PLAYORDER=
